<svg xmlns="http://www.w3.org/2000/svg" version="1.1" xmlns:xlink="http://www.w3.org/1999/xlink" xmlns:svgjs="http://svgjs.dev/svgjs" width="1000" height="133" viewBox="0 0 1000 133"><g transform="matrix(1,0,0,1,0.9829847845379049,2.1814586630143253)"><svg viewBox="0 0 396 53" data-background-color="#ffffff" preserveAspectRatio="xMidYMid meet" height="133" width="1000" xmlns="http://www.w3.org/2000/svg" xmlns:xlink="http://www.w3.org/1999/xlink"><defs></defs><g id="tight-bounds" transform="matrix(1,0,0,1,0.2546271073566686,-0.211450473264307)"><svg viewBox="0 0 395.52 53.42290094652862" height="53.42290094652862" width="395.52"><g><svg viewBox="0 0 493.0868183445083 66.60125468865701" height="53.42290094652862" width="395.52"><g transform="matrix(1,0,0,1,97.56681834450828,9.204659656681251)"><svg viewBox="0 0 395.52 48.191935375294506" height="48.191935375294506" width="395.52"><g><svg viewBox="0 0 395.52 48.191935375294506" height="48.191935375294506" width="395.52"><g><svg viewBox="0 0 395.52 48.191935375294506" height="48.191935375294506" width="395.52"><g transform="matrix(1,0,0,1,0,0)"><svg width="395.52" viewBox="0.4000000059604645 -35.400001525878906 297.07000732421875 36.20000076293945" height="48.191935375294506" data-palette-color="#156ec6"><path d="M0.4-34.6L24.2-34.6 23.45-29 15.7-29 15.7 0 8.5 0 8.5-29 0.4-29 0.4-34.6ZM51.35 0L44.15 0 44.15-15.2 34.55-15.2 34.55 0 27.35 0 27.35-34.6 34.55-34.6 34.55-20.9 44.15-20.9 44.15-34.6 51.35-34.6 51.35 0ZM57.55-34.6L76.55-34.6 75.8-29.35 64.75-29.35 64.75-20.2 74.4-20.2 74.4-15 64.75-15 64.75-5.3 76.55-5.3 76.55 0 57.55 0 57.55-34.6ZM115.94-34.6L115.94 0 106.79 0 97.49-27.65Q97.59-26.95 97.59-26.55L97.59-26.55Q97.99-23.05 98.22-20.23 98.44-17.4 98.44-13.65L98.44-13.65 98.44 0 92.04 0 92.04-34.6 101.04-34.6 110.49-6.9Q109.54-13.4 109.54-19.2L109.54-19.2 109.54-34.6 115.94-34.6ZM122.14-34.6L141.14-34.6 140.39-29.35 129.34-29.35 129.34-20.2 138.99-20.2 138.99-15 129.34-15 129.34-5.3 141.14-5.3 141.14 0 122.14 0 122.14-34.6ZM173.79-34.6L180.54-34.6 175.24 0 165.89 0 161.89-27.2 157.74 0 148.54 0 143.39-34.6 150.44-34.6 153.79-5.6 158.24-34.6 165.79-34.6 170.04-5.6 173.79-34.6ZM194.03-35.4Q197.43-35.4 200.01-34.3 202.58-33.2 204.73-31.05L204.73-31.05 201.38-27.2Q199.73-28.65 198.08-29.33 196.43-30 194.63-30L194.63-30Q192.58-30 191.41-28.98 190.23-27.95 190.23-26.15L190.23-26.15Q190.23-24.95 190.76-24.13 191.28-23.3 192.58-22.55 193.88-21.8 196.38-20.9L196.38-20.9Q199.48-19.75 201.46-18.4 203.43-17.05 204.51-15 205.58-12.95 205.58-9.95L205.58-9.95Q205.58-6.85 204.11-4.42 202.63-2 199.83-0.6 197.03 0.8 193.28 0.8L193.28 0.8Q186.23 0.8 181.53-4L181.53-4 185.13-8Q187.03-6.35 188.91-5.5 190.78-4.65 192.93-4.65L192.93-4.65Q195.38-4.65 196.73-5.95 198.08-7.25 198.08-9.5L198.08-9.5Q198.08-11.5 196.86-12.73 195.63-13.95 192.33-15.15L192.33-15.15Q187.23-17.05 185.03-19.45 182.83-21.85 182.83-25.65L182.83-25.65Q182.83-28.5 184.28-30.73 185.73-32.95 188.28-34.18 190.83-35.4 194.03-35.4L194.03-35.4ZM244.83 0L237.38 0 235.68-7.8 226.18-7.8 224.48 0 217.18 0 226.68-34.6 235.38-34.6 244.83 0ZM230.93-29.25L227.38-13.1 234.48-13.1 230.93-29.25ZM256.98-34.6Q263.53-34.6 267.03-31.8 270.53-29 270.53-23.5L270.53-23.5Q270.53-17.7 267.08-14.78 263.63-11.85 257.58-11.85L257.58-11.85 254.78-11.85 254.78 0 247.58 0 247.58-34.6 256.98-34.6ZM257.08-17.15Q260.13-17.15 261.63-18.6 263.13-20.05 263.13-23.45L263.13-23.45Q263.13-26.5 261.63-27.95 260.13-29.4 257.03-29.4L257.03-29.4 254.78-29.4 254.78-17.15 257.08-17.15ZM283.92-34.6Q290.47-34.6 293.97-31.8 297.47-29 297.47-23.5L297.47-23.5Q297.47-17.7 294.02-14.78 290.57-11.85 284.52-11.85L284.52-11.85 281.72-11.85 281.72 0 274.52 0 274.52-34.6 283.92-34.6ZM284.02-17.15Q287.07-17.15 288.57-18.6 290.07-20.05 290.07-23.45L290.07-23.45Q290.07-26.5 288.57-27.95 287.07-29.4 283.97-29.4L283.97-29.4 281.72-29.4 281.72-17.15 284.02-17.15Z" opacity="1" transform="matrix(1,0,0,1,0,0)" fill="#156ec6" class="undefined-text-0" data-fill-palette-color="primary" id="text-0"></path></svg></g></svg></g></svg></g></svg></g><g><svg viewBox="0 0 86.18985900885025 66.60125468865701" height="66.60125468865701" width="86.18985900885025"><g><svg xmlns="http://www.w3.org/2000/svg" viewBox="1 6 22 17" x="0" y="0" height="66.60125468865701" width="86.18985900885025" class="icon-icon-0" data-fill-palette-color="accent" id="icon-0"><path d="M7 15v7a1 1 0 0 1-1 1H2a1 1 0 0 1-1-1V15a1 1 0 0 1 1-1H6A1 1 0 0 1 7 15Zm7-5H10a1 1 0 0 0-1 1V22a1 1 0 0 0 1 1h4a1 1 0 0 0 1-1V11A1 1 0 0 0 14 10Zm9-3V22a1 1 0 0 1-1 1H18a1 1 0 0 1-1-1V7a1 1 0 0 1 1-1h4A1 1 0 0 1 23 7ZM21 8H19V21h2Z" fill="#010c80" data-fill-palette-color="accent"></path></svg></g></svg></g></svg></g></svg><rect width="395.52" height="53.42290094652862" fill="none" stroke="none" visibility="hidden"></rect></g></svg></g></svg>